# xmcd
#
# Track frame offsets: 
#        150
#        17930
#        34170
#        50947
#        64025
#        83285
#        103117
#        119570
#        136302
#        153870
#        171067
#        185582
#        197777
#        217250
#        233667
#        253352
#        269237
#        289237
#        303095
#        317810
#
# Disc length: 4423 seconds
#
# Revision: 1
# Processed by: cddbd v1.5.2PL0 Copyright (c) Steve Scherf et al.
# Submitted via: ExactAudioCopy v0.99pb3
#
DISCID=32114514
DTITLE=Kenny Rogers - The Very Best Of Kenny Rogers
DYEAR=1990
DGENRE=Country
TTITLE0=Lady
TTITLE1=The gambler
TTITLE2=Don't fall in love with a dreamer
TTITLE3=Ruby don't take your love to town
TTITLE4=She believes in me
TTITLE5=Coward of the county
TTITLE6=Lucille
TTITLE7=You decorated my life
TTITLE8=We've got tonight
TTITLE9=Desperado
TTITLE10=Daytime friends
TTITLE11=Reuben James
TTITLE12=Long arm of the law
TTITLE13=Green green grass of home
TTITLE14=Something's burning
TTITLE15=I don't need you
TTITLE16=Through the years
TTITLE17=Everytime two fools collide
TTITLE18=Love the world away
TTITLE19=All I ever need is you
EXTD=
EXTT0=
EXTT1=
EXTT2=
EXTT3=
EXTT4=
EXTT5=
EXTT6=
EXTT7=
EXTT8=
EXTT9=
EXTT10=
EXTT11=
EXTT12=
EXTT13=
EXTT14=
EXTT15=
EXTT16=
EXTT17=
EXTT18=
EXTT19=
PLAYORDER=
